<mxfile host="app.diagrams.net" agent="Mozilla/5.0 (X11; Linux x86_64) AppleWebKit/537.36 (KHTML, like Gecko) Chrome/130.0.0.0 Safari/537.36" version="24.8.3">
  <diagram name="Pagina-1" id="ZxX0oo_kiLSLvyLoVbYw">
    <mxGraphModel dx="683" dy="390" grid="1" gridSize="10" guides="1" tooltips="1" connect="1" arrows="1" fold="1" page="1" pageScale="1" pageWidth="827" pageHeight="1169" math="0" shadow="0">
      <root>
        <mxCell id="0" />
        <mxCell id="1" parent="0" />
        <mxCell id="tdygkYyboDWR9DIb5wEt-42" value="" style="edgeStyle=orthogonalEdgeStyle;rounded=0;orthogonalLoop=1;jettySize=auto;html=1;entryX=0;entryY=0.5;entryDx=0;entryDy=0;endArrow=none;endFill=0;" edge="1" parent="1" source="tdygkYyboDWR9DIb5wEt-1" target="tdygkYyboDWR9DIb5wEt-43">
          <mxGeometry relative="1" as="geometry">
            <mxPoint x="600" y="290" as="targetPoint" />
          </mxGeometry>
        </mxCell>
        <mxCell id="tdygkYyboDWR9DIb5wEt-1" value="Articoli" style="rounded=0;whiteSpace=wrap;html=1;fillColor=#ffe6cc;strokeColor=#d79b00;" vertex="1" parent="1">
          <mxGeometry x="380" y="260" width="120" height="60" as="geometry" />
        </mxCell>
        <mxCell id="tdygkYyboDWR9DIb5wEt-15" style="edgeStyle=orthogonalEdgeStyle;rounded=0;orthogonalLoop=1;jettySize=auto;html=1;entryX=0.5;entryY=1;entryDx=0;entryDy=0;endArrow=none;endFill=0;" edge="1" parent="1" source="tdygkYyboDWR9DIb5wEt-2" target="tdygkYyboDWR9DIb5wEt-14">
          <mxGeometry relative="1" as="geometry">
            <Array as="points">
              <mxPoint x="220" y="320" />
            </Array>
          </mxGeometry>
        </mxCell>
        <mxCell id="tdygkYyboDWR9DIb5wEt-2" value="Utenti" style="rounded=0;whiteSpace=wrap;html=1;fillColor=#ffe6cc;strokeColor=#d79b00;" vertex="1" parent="1">
          <mxGeometry x="160" y="359" width="120" height="60" as="geometry" />
        </mxCell>
        <mxCell id="tdygkYyboDWR9DIb5wEt-3" value="Categorie" style="rounded=0;whiteSpace=wrap;html=1;fillColor=#ffe6cc;strokeColor=#d79b00;" vertex="1" parent="1">
          <mxGeometry x="600" y="361" width="120" height="60" as="geometry" />
        </mxCell>
        <mxCell id="tdygkYyboDWR9DIb5wEt-10" style="edgeStyle=orthogonalEdgeStyle;rounded=0;orthogonalLoop=1;jettySize=auto;html=1;entryX=0.5;entryY=0;entryDx=0;entryDy=0;endArrow=none;endFill=0;" edge="1" parent="1" source="tdygkYyboDWR9DIb5wEt-4" target="tdygkYyboDWR9DIb5wEt-1">
          <mxGeometry relative="1" as="geometry">
            <Array as="points">
              <mxPoint x="440" y="120" />
            </Array>
          </mxGeometry>
        </mxCell>
        <mxCell id="tdygkYyboDWR9DIb5wEt-4" value="&lt;b&gt;&lt;u&gt;ID&lt;/u&gt;&lt;/b&gt;" style="ellipse;whiteSpace=wrap;html=1;fillColor=#f8cecc;strokeColor=#b85450;" vertex="1" parent="1">
          <mxGeometry x="320" y="100" width="80" height="40" as="geometry" />
        </mxCell>
        <mxCell id="tdygkYyboDWR9DIb5wEt-12" style="edgeStyle=orthogonalEdgeStyle;rounded=0;orthogonalLoop=1;jettySize=auto;html=1;exitX=1;exitY=0.5;exitDx=0;exitDy=0;entryX=0;entryY=0.5;entryDx=0;entryDy=0;endArrow=none;endFill=0;" edge="1" parent="1" source="tdygkYyboDWR9DIb5wEt-5" target="tdygkYyboDWR9DIb5wEt-8">
          <mxGeometry relative="1" as="geometry" />
        </mxCell>
        <mxCell id="tdygkYyboDWR9DIb5wEt-5" value="title" style="ellipse;whiteSpace=wrap;html=1;fillColor=#f8cecc;strokeColor=#b85450;" vertex="1" parent="1">
          <mxGeometry x="320" y="150" width="80" height="40" as="geometry" />
        </mxCell>
        <mxCell id="tdygkYyboDWR9DIb5wEt-13" style="edgeStyle=orthogonalEdgeStyle;rounded=0;orthogonalLoop=1;jettySize=auto;html=1;exitX=1;exitY=0.5;exitDx=0;exitDy=0;entryX=0;entryY=0.5;entryDx=0;entryDy=0;endArrow=none;endFill=0;" edge="1" parent="1" source="tdygkYyboDWR9DIb5wEt-6" target="tdygkYyboDWR9DIb5wEt-9">
          <mxGeometry relative="1" as="geometry" />
        </mxCell>
        <mxCell id="tdygkYyboDWR9DIb5wEt-6" value="subtitle" style="ellipse;whiteSpace=wrap;html=1;fillColor=#f8cecc;strokeColor=#b85450;" vertex="1" parent="1">
          <mxGeometry x="320" y="200" width="80" height="40" as="geometry" />
        </mxCell>
        <mxCell id="tdygkYyboDWR9DIb5wEt-11" style="edgeStyle=orthogonalEdgeStyle;rounded=0;orthogonalLoop=1;jettySize=auto;html=1;exitX=0;exitY=0.5;exitDx=0;exitDy=0;endArrow=none;endFill=0;" edge="1" parent="1" source="tdygkYyboDWR9DIb5wEt-7">
          <mxGeometry relative="1" as="geometry">
            <mxPoint x="439.9999999999998" y="120.20689655172418" as="targetPoint" />
          </mxGeometry>
        </mxCell>
        <mxCell id="tdygkYyboDWR9DIb5wEt-7" value="content" style="ellipse;whiteSpace=wrap;html=1;fillColor=#f8cecc;strokeColor=#b85450;" vertex="1" parent="1">
          <mxGeometry x="480" y="100" width="80" height="40" as="geometry" />
        </mxCell>
        <mxCell id="tdygkYyboDWR9DIb5wEt-8" value="date" style="ellipse;whiteSpace=wrap;html=1;fillColor=#f8cecc;strokeColor=#b85450;" vertex="1" parent="1">
          <mxGeometry x="480" y="150" width="80" height="40" as="geometry" />
        </mxCell>
        <mxCell id="tdygkYyboDWR9DIb5wEt-9" value="url" style="ellipse;whiteSpace=wrap;html=1;fillColor=#f8cecc;strokeColor=#b85450;" vertex="1" parent="1">
          <mxGeometry x="480" y="200" width="80" height="40" as="geometry" />
        </mxCell>
        <mxCell id="tdygkYyboDWR9DIb5wEt-16" style="edgeStyle=orthogonalEdgeStyle;rounded=0;orthogonalLoop=1;jettySize=auto;html=1;entryX=0;entryY=0.5;entryDx=0;entryDy=0;endArrow=none;endFill=0;" edge="1" parent="1" source="tdygkYyboDWR9DIb5wEt-14" target="tdygkYyboDWR9DIb5wEt-1">
          <mxGeometry relative="1" as="geometry" />
        </mxCell>
        <mxCell id="tdygkYyboDWR9DIb5wEt-14" value="scrive" style="rhombus;whiteSpace=wrap;html=1;fillColor=#dae8fc;strokeColor=#6c8ebf;" vertex="1" parent="1">
          <mxGeometry x="180" y="265" width="80" height="50" as="geometry" />
        </mxCell>
        <mxCell id="tdygkYyboDWR9DIb5wEt-17" value="n" style="text;html=1;align=center;verticalAlign=middle;whiteSpace=wrap;rounded=0;" vertex="1" parent="1">
          <mxGeometry x="256" y="269" width="20" height="30" as="geometry" />
        </mxCell>
        <mxCell id="tdygkYyboDWR9DIb5wEt-18" value="1" style="text;html=1;align=center;verticalAlign=middle;whiteSpace=wrap;rounded=0;" vertex="1" parent="1">
          <mxGeometry x="220" y="310" width="20" height="20" as="geometry" />
        </mxCell>
        <mxCell id="tdygkYyboDWR9DIb5wEt-28" style="edgeStyle=orthogonalEdgeStyle;rounded=0;orthogonalLoop=1;jettySize=auto;html=1;entryX=0.5;entryY=1;entryDx=0;entryDy=0;exitX=1;exitY=0.5;exitDx=0;exitDy=0;endArrow=none;endFill=0;" edge="1" parent="1" source="tdygkYyboDWR9DIb5wEt-19" target="tdygkYyboDWR9DIb5wEt-2">
          <mxGeometry relative="1" as="geometry" />
        </mxCell>
        <mxCell id="tdygkYyboDWR9DIb5wEt-19" value="name" style="ellipse;whiteSpace=wrap;html=1;fillColor=#f8cecc;strokeColor=#b85450;" vertex="1" parent="1">
          <mxGeometry x="100" y="589" width="80" height="40" as="geometry" />
        </mxCell>
        <mxCell id="tdygkYyboDWR9DIb5wEt-20" style="edgeStyle=orthogonalEdgeStyle;rounded=0;orthogonalLoop=1;jettySize=auto;html=1;exitX=1;exitY=0.5;exitDx=0;exitDy=0;entryX=0;entryY=0.5;entryDx=0;entryDy=0;endArrow=none;endFill=0;" edge="1" parent="1" source="tdygkYyboDWR9DIb5wEt-21" target="tdygkYyboDWR9DIb5wEt-26">
          <mxGeometry relative="1" as="geometry" />
        </mxCell>
        <mxCell id="tdygkYyboDWR9DIb5wEt-21" value="password" style="ellipse;whiteSpace=wrap;html=1;fillColor=#f8cecc;strokeColor=#b85450;" vertex="1" parent="1">
          <mxGeometry x="100" y="489" width="80" height="40" as="geometry" />
        </mxCell>
        <mxCell id="tdygkYyboDWR9DIb5wEt-22" style="edgeStyle=orthogonalEdgeStyle;rounded=0;orthogonalLoop=1;jettySize=auto;html=1;exitX=1;exitY=0.5;exitDx=0;exitDy=0;entryX=0;entryY=0.5;entryDx=0;entryDy=0;endArrow=none;endFill=0;" edge="1" parent="1" source="tdygkYyboDWR9DIb5wEt-23" target="tdygkYyboDWR9DIb5wEt-27">
          <mxGeometry relative="1" as="geometry" />
        </mxCell>
        <mxCell id="tdygkYyboDWR9DIb5wEt-23" value="last_login" style="ellipse;whiteSpace=wrap;html=1;fillColor=#f8cecc;strokeColor=#b85450;" vertex="1" parent="1">
          <mxGeometry x="100" y="539" width="80" height="40" as="geometry" />
        </mxCell>
        <mxCell id="tdygkYyboDWR9DIb5wEt-24" style="edgeStyle=orthogonalEdgeStyle;rounded=0;orthogonalLoop=1;jettySize=auto;html=1;exitX=0;exitY=0.5;exitDx=0;exitDy=0;endArrow=none;endFill=0;" edge="1" parent="1" source="tdygkYyboDWR9DIb5wEt-25">
          <mxGeometry relative="1" as="geometry">
            <mxPoint x="219.99999999999977" y="609.2068965517242" as="targetPoint" />
          </mxGeometry>
        </mxCell>
        <mxCell id="tdygkYyboDWR9DIb5wEt-25" value="surname" style="ellipse;whiteSpace=wrap;html=1;fillColor=#f8cecc;strokeColor=#b85450;" vertex="1" parent="1">
          <mxGeometry x="260" y="589" width="80" height="40" as="geometry" />
        </mxCell>
        <mxCell id="tdygkYyboDWR9DIb5wEt-26" value="mail" style="ellipse;whiteSpace=wrap;html=1;fillColor=#f8cecc;strokeColor=#b85450;" vertex="1" parent="1">
          <mxGeometry x="260" y="489" width="80" height="40" as="geometry" />
        </mxCell>
        <mxCell id="tdygkYyboDWR9DIb5wEt-27" value="nicename" style="ellipse;whiteSpace=wrap;html=1;fillColor=#f8cecc;strokeColor=#b85450;" vertex="1" parent="1">
          <mxGeometry x="260" y="539" width="80" height="40" as="geometry" />
        </mxCell>
        <mxCell id="tdygkYyboDWR9DIb5wEt-29" style="edgeStyle=orthogonalEdgeStyle;rounded=0;orthogonalLoop=1;jettySize=auto;html=1;exitX=1;exitY=0.5;exitDx=0;exitDy=0;entryX=0;entryY=0.5;entryDx=0;entryDy=0;endArrow=none;endFill=0;" edge="1" parent="1" source="tdygkYyboDWR9DIb5wEt-30" target="tdygkYyboDWR9DIb5wEt-31">
          <mxGeometry relative="1" as="geometry" />
        </mxCell>
        <mxCell id="tdygkYyboDWR9DIb5wEt-30" value="&lt;b&gt;&lt;u&gt;ID&lt;/u&gt;&lt;/b&gt;" style="ellipse;whiteSpace=wrap;html=1;fillColor=#f8cecc;strokeColor=#b85450;" vertex="1" parent="1">
          <mxGeometry x="100" y="439" width="80" height="40" as="geometry" />
        </mxCell>
        <mxCell id="tdygkYyboDWR9DIb5wEt-31" value="username" style="ellipse;whiteSpace=wrap;html=1;fillColor=#f8cecc;strokeColor=#b85450;" vertex="1" parent="1">
          <mxGeometry x="260" y="439" width="80" height="40" as="geometry" />
        </mxCell>
        <mxCell id="tdygkYyboDWR9DIb5wEt-39" style="edgeStyle=orthogonalEdgeStyle;rounded=0;orthogonalLoop=1;jettySize=auto;html=1;entryX=0.5;entryY=1;entryDx=0;entryDy=0;endArrow=none;endFill=0;" edge="1" parent="1" target="tdygkYyboDWR9DIb5wEt-3">
          <mxGeometry relative="1" as="geometry">
            <mxPoint x="660" y="510" as="sourcePoint" />
            <Array as="points">
              <mxPoint x="660" y="511" />
            </Array>
          </mxGeometry>
        </mxCell>
        <mxCell id="tdygkYyboDWR9DIb5wEt-34" value="description" style="ellipse;whiteSpace=wrap;html=1;fillColor=#f8cecc;strokeColor=#b85450;" vertex="1" parent="1">
          <mxGeometry x="540" y="489" width="80" height="40" as="geometry" />
        </mxCell>
        <mxCell id="tdygkYyboDWR9DIb5wEt-36" style="edgeStyle=orthogonalEdgeStyle;rounded=0;orthogonalLoop=1;jettySize=auto;html=1;exitX=1;exitY=0.5;exitDx=0;exitDy=0;entryX=0;entryY=0.5;entryDx=0;entryDy=0;endArrow=none;endFill=0;" edge="1" parent="1" source="tdygkYyboDWR9DIb5wEt-37" target="tdygkYyboDWR9DIb5wEt-38">
          <mxGeometry relative="1" as="geometry" />
        </mxCell>
        <mxCell id="tdygkYyboDWR9DIb5wEt-37" value="&lt;b&gt;&lt;u&gt;ID&lt;/u&gt;&lt;/b&gt;" style="ellipse;whiteSpace=wrap;html=1;fillColor=#f8cecc;strokeColor=#b85450;" vertex="1" parent="1">
          <mxGeometry x="540" y="441" width="80" height="40" as="geometry" />
        </mxCell>
        <mxCell id="tdygkYyboDWR9DIb5wEt-38" value="title" style="ellipse;whiteSpace=wrap;html=1;fillColor=#f8cecc;strokeColor=#b85450;" vertex="1" parent="1">
          <mxGeometry x="700" y="441" width="80" height="40" as="geometry" />
        </mxCell>
        <mxCell id="tdygkYyboDWR9DIb5wEt-44" style="edgeStyle=orthogonalEdgeStyle;rounded=0;orthogonalLoop=1;jettySize=auto;html=1;entryX=0.5;entryY=0;entryDx=0;entryDy=0;endArrow=none;endFill=0;" edge="1" parent="1" source="tdygkYyboDWR9DIb5wEt-43" target="tdygkYyboDWR9DIb5wEt-3">
          <mxGeometry relative="1" as="geometry" />
        </mxCell>
        <mxCell id="tdygkYyboDWR9DIb5wEt-43" value="appartengono&lt;div&gt;a&lt;/div&gt;" style="rhombus;whiteSpace=wrap;html=1;fillColor=#dae8fc;strokeColor=#6c8ebf;" vertex="1" parent="1">
          <mxGeometry x="605" y="260" width="110" height="60" as="geometry" />
        </mxCell>
        <mxCell id="tdygkYyboDWR9DIb5wEt-45" value="n" style="text;html=1;align=center;verticalAlign=middle;whiteSpace=wrap;rounded=0;" vertex="1" parent="1">
          <mxGeometry x="659" y="312" width="20" height="30" as="geometry" />
        </mxCell>
        <mxCell id="tdygkYyboDWR9DIb5wEt-46" value="n" style="text;html=1;align=center;verticalAlign=middle;whiteSpace=wrap;rounded=0;" vertex="1" parent="1">
          <mxGeometry x="595" y="263" width="19" height="30" as="geometry" />
        </mxCell>
        <mxCell id="tdygkYyboDWR9DIb5wEt-48" style="edgeStyle=orthogonalEdgeStyle;rounded=0;orthogonalLoop=1;jettySize=auto;html=1;entryX=1;entryY=0.5;entryDx=0;entryDy=0;endArrow=none;endFill=0;" edge="1" parent="1" source="tdygkYyboDWR9DIb5wEt-47" target="tdygkYyboDWR9DIb5wEt-34">
          <mxGeometry relative="1" as="geometry">
            <mxPoint x="659.9999999999998" y="509" as="targetPoint" />
          </mxGeometry>
        </mxCell>
        <mxCell id="tdygkYyboDWR9DIb5wEt-47" value="url" style="ellipse;whiteSpace=wrap;html=1;fillColor=#f8cecc;strokeColor=#b85450;" vertex="1" parent="1">
          <mxGeometry x="700" y="489" width="80" height="40" as="geometry" />
        </mxCell>
      </root>
    </mxGraphModel>
  </diagram>
</mxfile>
